# xmcd
#
# Track frame offsets: 
#        68790
#        85360
#        110779
#        124747
#        145622
#        161260
#        175710
#        198912
#        218042
#        237017
#        259155
#        274820
#        299690
#        318852
#
# Disc length: 4491 seconds
#
# Revision: 32
# Processed by: cddbd v1.5.2PL0 Copyright (c) Steve Scherf et al.
# Submitted via: ExactAudioCopy v1.1
#
DISCID=d80df60e
DTITLE=Rolling Stones - Stripped
DYEAR=1995
DGENRE=Rock
TTITLE0=Street Fighting Man
TTITLE1=Like A Rolling Stone
TTITLE2=Not Fade Away
TTITLE3=Shine A Light
TTITLE4=The Spider And The Fly
TTITLE5=I'm Free
TTITLE6=Wild Horses
TTITLE7=Let It Bleed
TTITLE8=Dead Flowers
TTITLE9=Slipping Away
TTITLE10=Angie
TTITLE11=Love In Vain
TTITLE12=Sweet Virginia
TTITLE13=Little Baby
EXTD=YEAR: 1995
EXTT0=
EXTT1=
EXTT2=
EXTT3=
EXTT4=
EXTT5=
EXTT6=
EXTT7=
EXTT8=
EXTT9=
EXTT10=
EXTT11=
EXTT12=
EXTT13=
PLAYORDER=
